<?xml version="1.0" encoding="UTF-8"?>
<!DOCTYPE svg PUBLIC "-//W3C//DTD SVG 1.1//EN" "http://www.w3.org/Graphics/SVG/1.1/DTD/svg11.dtd">
<!-- Creator: CorelDRAW 2018 -->
<svg xmlns="http://www.w3.org/2000/svg" xml:space="preserve" width="28.9427mm" height="54.3221mm" version="1.1" style="shape-rendering:geometricPrecision; text-rendering:geometricPrecision; image-rendering:optimizeQuality; fill-rule:evenodd; clip-rule:evenodd"
viewBox="0 0 646.75 1213.87"
 xmlns:xlink="http://www.w3.org/1999/xlink">
 <defs>
  <style type="text/css">
   <![CDATA[
    .fil1 {fill:rgba(0, 194, 206, .1)}
    .fil0 {fill:rgba(0, 234, 255, .1)}
    .fil2 {fill:#e6f9fb;fill-rule:nonzero}
   ]]>
  </style>
 </defs>
 <g id="Слой_x0020_1">
  <metadata id="CorelCorpID_0Corel-Layer"/>
  <path class="fil0" d="M323.37 216.95c38.12,0 69.02,30.9 69.02,69.02 0,38.13 -30.89,69.02 -69.02,69.02 -38.12,0 -69.01,-30.89 -69.01,-69.02 0,-38.12 30.9,-69.02 69.01,-69.02zm0 -216.95c78.97,0 150.48,32 202.22,83.75 51.75,51.74 83.75,123.25 83.75,202.21 0,78.98 -32,150.47 -83.75,202.22 -51.74,51.73 -123.25,83.75 -202.22,83.75 -78.97,0 -150.46,-32 -202.21,-83.75 -51.74,-51.75 -83.75,-123.24 -83.75,-202.22 0,-78.97 32.01,-150.48 83.75,-202.21 51.75,-51.75 123.24,-83.75 202.21,-83.75zm151.12 134.84c-38.66,-38.66 -92.1,-62.58 -151.12,-62.58 -59.02,0 -112.45,23.91 -151.12,62.58 -38.66,38.67 -62.58,92.1 -62.58,151.12 0,59.03 23.92,112.46 62.58,151.12 38.66,38.66 92.1,62.58 151.12,62.58 59.03,0 112.46,-23.91 151.12,-62.58 38.67,-38.67 62.58,-92.1 62.58,-151.12 0,-59.02 -23.91,-112.46 -62.58,-151.12z"/>
  <path class="fil0" d="M2.78 486.61c-22.16,333.21 88.55,572.92 320.59,727.25 232.04,-154.33 342.75,-394.04 320.59,-727.24 -147.87,235.77 -493.34,235.78 -641.19,-0.01z"/>
  <path class="fil1" d="M323.37 1213.87c232.04,-154.33 342.75,-394.04 320.59,-727.24 -73.93,117.88 -197.27,176.83 -320.6,176.83l0.01 550.41z"/>
  <path class="fil2" d="M504.16 871.44c0,21.39 -9.35,35.33 -28.09,41.81 -6.54,2.31 -13.56,3.45 -21.08,3.45 -15.8,0 -30.43,-4.77 -43.92,-14.32l14.03 -26.45c9.86,8.97 19.5,13.46 28.95,13.46 4.23,0 7.87,-1.01 10.8,-3 3.45,-2.24 5.19,-5.43 5.19,-9.57 0,-3.76 -1.9,-6.89 -5.72,-9.39 -2.84,-1.86 -7.65,-3.79 -14.35,-5.72 -8.15,-2.4 -13.27,-4.08 -15.36,-4.99 -3.35,-1.42 -6.19,-3.09 -8.53,-4.99 -6.73,-5.56 -10.08,-13.97 -10.08,-25.18 0,-11.72 3.48,-21.43 10.46,-29.17 8.12,-9.07 18.99,-13.59 32.55,-13.59 13.62,0 26.95,3.41 40.03,10.27l-13.08 25.57c-7.17,-5.69 -14.38,-8.53 -21.68,-8.53 -3.51,0 -6.67,0.92 -9.45,2.72 -3.13,2.05 -4.71,4.77 -4.71,8.21 0,3.35 2.05,6.26 6.19,8.69 1.87,1.11 7.4,3.03 16.66,5.78 11.59,3.41 19.87,8.22 24.8,14.47 4.27,5.31 6.38,12.13 6.38,20.48z"/>
  <polygon class="fil2" points="404.33,913.28 371.53,913.28 362.21,840.48 331.68,913.28 318.66,913.28 289.53,840.48 278.81,913.28 246.02,913.28 267.44,786.82 300.05,786.82 325.58,854.32 352.57,786.82 385.37,786.82 "/>
  <path class="fil2" d="M239.27 910.31c-10.74,4.27 -20.7,6.38 -29.83,6.38 -15.93,0 -30.18,-5.09 -42.79,-15.3 -16.05,-13.02 -24.08,-29.99 -24.08,-50.94 0,-20.98 8.03,-37.98 24.08,-51 12.61,-10.2 26.95,-15.29 43.07,-15.29 8.75,0 18.61,2.12 29.54,6.38l0 39.31c-3.09,-3.79 -6.23,-6.64 -9.45,-8.53 -5.88,-3.54 -12.17,-5.31 -18.93,-5.31 -8.5,0 -15.92,2.56 -22.25,7.71 -7.96,6.51 -11.95,15.42 -11.95,26.73 0,11.28 3.98,20.16 11.95,26.67 6.32,5.15 13.75,7.71 22.25,7.71 6.76,0 13.05,-1.77 18.93,-5.31 3.16,-1.83 6.29,-4.71 9.45,-8.53l0 39.31z"/>
 </g>
</svg>
